


[img]http://i.minus.com/irJGshWKCc0oA.jpg[/img]

[img]http://i.minus.com/isZkvveEl4eXf.jpg[/img]

[img]http://i.minus.com/ibrcv4I5leAspY.jpg[/img]

[img]http://i.minus.com/iLgO8HzhCT3HQ.jpg[/img]

general
Complete name                    : Scooby.Doo.Abracadabra.Doo x264-salman sk.m4v
Format                           : MPEG-4
Format profile                   : Base Media / Version 2
Codec ID                         : mp42
File size                        : 551 MiB
Duration                         : 1h 16mn
Overall bit rate                 : 1 007 Kbps
Encoded date                     : UTC 2011-09-15 16:38:33
Tagged date                      : UTC 2011-09-15 17:01:42

video
ID                               : 1
Format                           : AVC
Format/Info                      : Advanced Video Codec
Format profile                   : Main@L3.0
Format settings, CABAC           : Yes
Format settings, ReFrames        : 4 frames
Codec ID                         : avc1
Codec ID/Info                    : Advanced Video Coding
Duration                         : 1h 16mn
Bit rate mode                    : Variable
Bit rate                         : 842 Kbps
Width                            : 672 pixels
Height                           : 368 pixels
Display aspect ratio             : 16:9
Frame rate mode                  : Variable
Frame rate                       : 23.976 fps
Minimum frame rate               : 11.987 fps
Maximum frame rate               : 90 000.000 fps
Color space                      : YUV
Chroma subsampling               : 4:2:0
Bit depth                        : 8 bits
Scan type                        : Progressive
Bits/(Pixel*Frame)               : 0.142
Stream size                      : 460 MiB (84%)
Writing library                  : x264 core 112
Encoded date                     : UTC 2011-09-15 16:38:33
Tagged date                      : UTC 2011-09-15 17:01:42

audio
ID                               : 2
Format                           : AAC
Format/Info                      : Advanced Audio Codec
Format version                   : Version 4
Format profile                   : LC
Format settings, SBR             : No
Codec ID                         : 40
Duration                         : 1h 16mn
Bit rate mode                    : Variable
Bit rate                         : 160 Kbps
Maximum bit rate                 : 296 Kbps
Channel(s)                       : 2 channels
Channel positions                : Front: L R
Sampling rate                    : 48.0 KHz
Stream size                      : 87.4 MiB (16%)
Encoded date                     : UTC 2011-09-15 16:38:33
Tagged date                      : UTC 2011-09-15 17:01:42
Audio language			 : English